<?xml version="1.0" standalone="no"?>
<!DOCTYPE svg PUBLIC "-//W3C//DTD SVG 20010904//EN"
 "http://www.w3.org/TR/2001/REC-SVG-20010904/DTD/svg10.dtd">
<svg version="1.0" xmlns="http://www.w3.org/2000/svg"
 width="1365.000000pt" height="767.000000pt" viewBox="0 0 1365.000000 767.000000"
 preserveAspectRatio="xMidYMid meet">
<metadata>
Created by potrace 1.16, written by Peter Selinger 2001-2019
</metadata>
<g transform="translate(0.000000,767.000000) scale(0.100000,-0.100000)"
fill="#000000" stroke="none">
<path d="M1277 5704 c-4 -4 -7 -54 -7 -111 l0 -103 25 0 c23 0 25 4 25 45 0
25 4 45 8 45 5 0 23 -20 41 -45 23 -32 39 -45 57 -45 28 0 26 8 -20 69 -14 19
-26 39 -26 43 0 5 14 27 30 50 35 48 37 58 10 58 -13 0 -32 -17 -52 -45 -18
-25 -35 -45 -39 -45 -4 0 -9 19 -11 42 -3 41 -22 60 -41 42z"/>
<path d="M9290 5575 c0 -77 2 -85 19 -85 12 0 31 19 53 53 l33 52 3 -52 c2
-38 7 -53 18 -53 11 0 14 17 14 85 0 74 -2 85 -17 85 -11 0 -32 -23 -50 -53
l-32 -52 -1 53 c0 45 -3 52 -20 52 -18 0 -20 -7 -20 -85z"/>
<path d="M1477 5633 c-37 -42 -29 -108 17 -138 21 -14 31 -15 59 -6 87 29 69
161 -22 161 -23 0 -44 -7 -54 -17z"/>
<path d="M1630 5540 c0 -103 1 -110 20 -110 16 0 20 7 20 31 0 28 2 31 25 25
60 -15 100 58 71 127 -15 37 -15 37 -75 37 l-61 0 0 -110z"/>
<path d="M1950 5570 c0 -78 1 -80 24 -80 18 0 31 11 50 43 l25 42 1 -42 c0
-36 3 -43 20 -43 18 0 20 7 20 80 0 72 -2 80 -19 80 -12 0 -29 -16 -45 -42
l-25 -43 -1 43 c0 38 -2 42 -25 42 -25 0 -25 -1 -25 -80z"/>
<path d="M2130 5570 c0 -73 2 -80 20 -80 16 0 20 7 20 30 0 25 4 30 25 30 21
0 25 -5 25 -30 0 -25 4 -30 25 -30 25 0 25 1 25 80 0 79 0 80 -25 80 -21 0
-25 -5 -25 -30 0 -25 -4 -30 -25 -30 -21 0 -25 5 -25 30 0 23 -4 30 -20 30
-18 0 -20 -7 -20 -80z"/>
<path d="M2312 5638 c-7 -7 -12 -18 -12 -25 0 -16 32 -17 47 -2 13 13 43 5 43
-11 0 -5 -13 -10 -30 -10 -31 0 -70 -30 -70 -53 0 -21 23 -46 45 -48 11 -1 38
-1 60 -1 l40 2 -5 70 c-4 47 -10 74 -20 80 -21 14 -84 12 -98 -2z"/>
<path d="M3292 4474 c-131 -67 -94 -265 52 -281 115 -13 200 106 151 211 -35
73 -131 106 -203 70z"/>
<path d="M3692 4474 c-131 -67 -94 -265 52 -281 115 -13 200 106 151 211 -35
73 -131 106 -203 70z"/>
</g>
</svg>
