<svg width="490" height="61" viewBox="0 0 490 61" fill="none" xmlns="http://www.w3.org/2000/svg">
<path d="M17.138 17.269H0.328V2.26299H53.3V17.269H36.49V59.663H17.138V17.269ZM87.6196 60.975C81.4422 60.975 75.8936 59.6903 70.9736 57.121C66.0536 54.5517 62.1996 50.9983 59.4116 46.461C56.6236 41.869 55.2296 36.703 55.2296 30.963C55.2296 25.223 56.6236 20.0843 59.4116 15.547C62.1996 10.955 66.0536 7.37432 70.9736 4.80499C75.8936 2.23566 81.4422 0.950993 87.6196 0.950993C93.7969 0.950993 99.3456 2.23566 104.266 4.80499C109.186 7.37432 113.04 10.955 115.828 15.547C118.616 20.0843 120.01 25.223 120.01 30.963C120.01 36.703 118.616 41.869 115.828 46.461C113.04 50.9983 109.186 54.5517 104.266 57.121C99.3456 59.6903 93.7969 60.975 87.6196 60.975ZM87.6196 45.313C90.0249 45.313 92.1842 44.739 94.0976 43.591C96.0656 42.3883 97.6236 40.721 98.7716 38.589C99.9196 36.4023 100.494 33.8603 100.494 30.963C100.494 28.0657 99.9196 25.551 98.7716 23.419C97.6236 21.2323 96.0656 19.565 94.0976 18.417C92.1842 17.2143 90.0249 16.613 87.6196 16.613C85.2142 16.613 83.0276 17.2143 81.0596 18.417C79.1462 19.565 77.6156 21.2323 76.4676 23.419C75.3196 25.551 74.7456 28.0657 74.7456 30.963C74.7456 33.8603 75.3196 36.4023 76.4676 38.589C77.6156 40.721 79.1462 42.3883 81.0596 43.591C83.0276 44.739 85.2142 45.313 87.6196 45.313Z" fill="#B6B6B6"/>
<path d="M151.617 2.26299H179.907C186.303 2.26299 191.934 3.43832 196.799 5.78899C201.719 8.08499 205.519 11.3923 208.197 15.711C210.931 20.0297 212.297 25.1137 212.297 30.963C212.297 36.8123 210.931 41.8963 208.197 46.215C205.519 50.5337 201.719 53.8683 196.799 56.219C191.934 58.515 186.303 59.663 179.907 59.663H151.617V2.26299ZM179.087 44.575C183.242 44.575 186.549 43.3997 189.009 41.049C191.524 38.6437 192.781 35.2817 192.781 30.963C192.781 26.6443 191.524 23.3097 189.009 20.959C186.549 18.5537 183.242 17.351 179.087 17.351H170.969V44.575H179.087ZM249.457 60.975C243.28 60.975 237.731 59.6903 232.811 57.121C227.891 54.5517 224.037 50.9983 221.249 46.461C218.461 41.869 217.067 36.703 217.067 30.963C217.067 25.223 218.461 20.0843 221.249 15.547C224.037 10.955 227.891 7.37432 232.811 4.80499C237.731 2.23566 243.28 0.950993 249.457 0.950993C255.635 0.950993 261.183 2.23566 266.103 4.80499C271.023 7.37432 274.877 10.955 277.665 15.547C280.453 20.0843 281.847 25.223 281.847 30.963C281.847 36.703 280.453 41.869 277.665 46.461C274.877 50.9983 271.023 54.5517 266.103 57.121C261.183 59.6903 255.635 60.975 249.457 60.975ZM249.457 45.313C251.863 45.313 254.022 44.739 255.935 43.591C257.903 42.3883 259.461 40.721 260.609 38.589C261.757 36.4023 262.331 33.8603 262.331 30.963C262.331 28.0657 261.757 25.551 260.609 23.419C259.461 21.2323 257.903 19.565 255.935 18.417C254.022 17.2143 251.863 16.613 249.457 16.613C247.052 16.613 244.865 17.2143 242.897 18.417C240.984 19.565 239.453 21.2323 238.305 23.419C237.157 25.551 236.583 28.0657 236.583 30.963C236.583 33.8603 237.157 36.4023 238.305 38.589C239.453 40.721 240.984 42.3883 242.897 43.591C244.865 44.739 247.052 45.313 249.457 45.313Z" fill="black"/>
<path d="M313.455 2.26299H332.807V44.657H358.719V59.663H313.455V2.26299ZM364.065 2.26299H383.417V59.663H364.065V2.26299ZM414.135 60.975C409.379 60.975 404.732 60.4557 400.195 59.417C395.712 58.3237 392.022 56.875 389.125 55.071L395.357 40.967C398.09 42.5523 401.151 43.837 404.541 44.821C407.93 45.7503 411.183 46.215 414.299 46.215C416.977 46.215 418.891 45.969 420.039 45.477C421.187 44.9303 421.761 44.1377 421.761 43.099C421.761 41.8963 420.995 40.9943 419.465 40.393C417.989 39.7917 415.529 39.1357 412.085 38.425C407.657 37.4957 403.967 36.5117 401.015 35.473C398.063 34.3797 395.493 32.6303 393.307 30.225C391.12 27.765 390.027 24.4577 390.027 20.303C390.027 16.695 391.038 13.415 393.061 10.463C395.083 7.51099 398.09 5.18766 402.081 3.49299C406.126 1.79832 411.019 0.950993 416.759 0.950993C420.695 0.950993 424.549 1.38833 428.321 2.26299C432.147 3.08299 435.509 4.31299 438.407 5.95299L432.585 19.975C426.954 17.1323 421.624 15.711 416.595 15.711C411.62 15.711 409.133 16.9137 409.133 19.319C409.133 20.467 409.871 21.3417 411.347 21.943C412.823 22.4897 415.255 23.091 418.645 23.747C423.018 24.567 426.708 25.5237 429.715 26.617C432.721 27.6557 435.318 29.3777 437.505 31.783C439.746 34.1883 440.867 37.4683 440.867 41.623C440.867 45.231 439.855 48.511 437.833 51.463C435.81 54.3603 432.776 56.6837 428.731 58.433C424.74 60.1277 419.875 60.975 414.135 60.975ZM458.288 17.269H441.478V2.26299H494.45V17.269H477.64V59.663H458.288V17.269Z" fill="#0027F7"/>
</svg>
