<svg width="427" height="61" viewBox="0 0 427 61" fill="none" xmlns="http://www.w3.org/2000/svg">
<path d="M32.358 60.312C26.29 60.312 20.8233 59.0547 15.958 56.54C11.0927 53.9707 7.266 50.4173 4.478 45.88C1.74467 41.288 0.378 36.0947 0.378 30.3C0.378 24.5053 1.74467 19.3393 4.478 14.802C7.266 10.21 11.0927 6.65666 15.958 4.142C20.8233 1.57266 26.29 0.287998 32.358 0.287998C37.934 0.287998 42.9087 1.272 47.282 3.24C51.6553 5.208 55.2633 8.05066 58.106 11.768L45.888 22.674C42.3347 18.1913 38.1527 15.95 33.342 15.95C29.2967 15.95 26.044 17.262 23.584 19.886C21.124 22.4553 19.894 25.9267 19.894 30.3C19.894 34.6733 21.124 38.172 23.584 40.796C26.044 43.3653 29.2967 44.65 33.342 44.65C38.1527 44.65 42.3347 42.4087 45.888 37.926L58.106 48.832C55.2633 52.5493 51.6553 55.392 47.282 57.36C42.9087 59.328 37.934 60.312 32.358 60.312ZM92.5864 60.312C86.409 60.312 80.8604 59.0273 75.9404 56.458C71.0204 53.8887 67.1664 50.3353 64.3784 45.798C61.5904 41.206 60.1964 36.04 60.1964 30.3C60.1964 24.56 61.5904 19.4213 64.3784 14.884C67.1664 10.292 71.0204 6.71133 75.9404 4.142C80.8604 1.57266 86.409 0.287998 92.5864 0.287998C98.7637 0.287998 104.312 1.57266 109.232 4.142C114.152 6.71133 118.006 10.292 120.794 14.884C123.582 19.4213 124.976 24.56 124.976 30.3C124.976 36.04 123.582 41.206 120.794 45.798C118.006 50.3353 114.152 53.8887 109.232 56.458C104.312 59.0273 98.7637 60.312 92.5864 60.312ZM92.5864 44.65C94.9917 44.65 97.151 44.076 99.0644 42.928C101.032 41.7253 102.59 40.058 103.738 37.926C104.886 35.7393 105.46 33.1973 105.46 30.3C105.46 27.4027 104.886 24.888 103.738 22.756C102.59 20.5693 101.032 18.902 99.0644 17.754C97.151 16.5513 94.9917 15.95 92.5864 15.95C90.181 15.95 87.9944 16.5513 86.0264 17.754C84.113 18.902 82.5824 20.5693 81.4344 22.756C80.2864 24.888 79.7124 27.4027 79.7124 30.3C79.7124 33.1973 80.2864 35.7393 81.4344 37.926C82.5824 40.058 84.113 41.7253 86.0264 42.928C87.9944 44.076 90.181 44.65 92.5864 44.65ZM159.47 60.312C150.669 60.312 143.808 57.934 138.888 53.178C133.968 48.422 131.508 41.7527 131.508 33.17V1.6H150.86V32.596C150.86 36.8053 151.598 39.8667 153.074 41.78C154.605 43.6933 156.792 44.65 159.634 44.65C162.477 44.65 164.636 43.6933 166.112 41.78C167.643 39.8667 168.408 36.8053 168.408 32.596V1.6H187.432V33.17C187.432 41.7527 184.972 48.422 180.052 53.178C175.132 57.934 168.272 60.312 159.47 60.312ZM252.883 1.6V59H236.975L215.163 32.924V59H196.303V1.6H212.211L234.023 27.676V1.6H252.883ZM274.671 16.606H257.861V1.6H310.833V16.606H294.023V59H274.671V16.606ZM363.584 44.404V59H315.86V1.6H362.518V16.196H334.884V22.92H359.156V36.86H334.884V44.404H363.584ZM395.633 44.568H390.385V59H371.033V1.6H398.667C403.97 1.6 408.589 2.47466 412.525 4.224C416.461 5.97333 419.495 8.488 421.627 11.768C423.759 15.048 424.825 18.8747 424.825 23.248C424.825 27.348 423.896 30.9287 422.037 33.99C420.179 37.0513 417.5 39.484 414.001 41.288L426.055 59H405.391L395.633 44.568ZM405.309 23.248C405.309 21.116 404.653 19.476 403.341 18.328C402.029 17.1253 400.061 16.524 397.437 16.524H390.385V29.972H397.437C400.061 29.972 402.029 29.398 403.341 28.25C404.653 27.0473 405.309 25.38 405.309 23.248Z" fill="#14143E"/>
</svg>
