<svg width="363" height="61" viewBox="0 0 363 61" fill="none" xmlns="http://www.w3.org/2000/svg">
<path d="M25.076 60.312C20.32 60.312 15.6733 59.7927 11.136 58.754C6.65333 57.6607 2.96333 56.212 0.066 54.408L6.298 40.304C9.03133 41.8893 12.0927 43.174 15.482 44.158C18.8713 45.0873 22.124 45.552 25.24 45.552C27.9187 45.552 29.832 45.306 30.98 44.814C32.128 44.2673 32.702 43.4747 32.702 42.436C32.702 41.2333 31.9367 40.3313 30.406 39.73C28.93 39.1287 26.47 38.4727 23.026 37.762C18.598 36.8327 14.908 35.8487 11.956 34.81C9.004 33.7167 6.43467 31.9673 4.248 29.562C2.06133 27.102 0.968 23.7947 0.968 19.64C0.968 16.032 1.97933 12.752 4.002 9.8C6.02467 6.848 9.03133 4.52466 13.022 2.82999C17.0673 1.13533 21.96 0.287998 27.7 0.287998C31.636 0.287998 35.49 0.725331 39.262 1.6C43.0887 2.42 46.4507 3.65 49.348 5.29L43.526 19.312C37.8953 16.4693 32.5653 15.048 27.536 15.048C22.5613 15.048 20.074 16.2507 20.074 18.656C20.074 19.804 20.812 20.6787 22.288 21.28C23.764 21.8267 26.1967 22.428 29.586 23.084C33.9593 23.904 37.6493 24.8607 40.656 25.954C43.6627 26.9927 46.2593 28.7147 48.446 31.12C50.6873 33.5253 51.808 36.8053 51.808 40.96C51.808 44.568 50.7967 47.848 48.774 50.8C46.7513 53.6973 43.7173 56.0207 39.672 57.77C35.6813 59.4647 30.816 60.312 25.076 60.312ZM238.383 1.6H266.673C273.069 1.6 278.7 2.77533 283.565 5.126C288.485 7.422 292.284 10.7293 294.963 15.048C297.696 19.3667 299.063 24.4507 299.063 30.3C299.063 36.1493 297.696 41.2333 294.963 45.552C292.284 49.8707 288.485 53.2053 283.565 55.556C278.7 57.852 273.069 59 266.673 59H238.383V1.6ZM265.853 43.912C270.008 43.912 273.315 42.7367 275.775 40.386C278.29 37.9807 279.547 34.6187 279.547 30.3C279.547 25.9813 278.29 22.6467 275.775 20.296C273.315 17.8907 270.008 16.688 265.853 16.688H257.735V43.912H265.853ZM352.049 28.988C355.438 30.2453 358.062 32.0767 359.921 34.482C361.78 36.8873 362.709 39.7847 362.709 43.174C362.709 48.2033 360.632 52.112 356.477 54.9C352.322 57.6333 346.309 59 338.437 59H306.129V1.6H336.797C344.45 1.6 350.218 2.96666 354.099 5.7C358.035 8.43333 360.003 12.0687 360.003 16.606C360.003 19.2847 359.32 21.69 357.953 23.822C356.641 25.954 354.673 27.676 352.049 28.988ZM325.153 15.13V23.658H334.173C338.382 23.658 340.487 22.2367 340.487 19.394C340.487 16.5513 338.382 15.13 334.173 15.13H325.153ZM336.797 45.47C341.061 45.47 343.193 43.9667 343.193 40.96C343.193 37.9533 341.061 36.45 336.797 36.45H325.153V45.47H336.797Z" fill="black"/>
<path d="M70.0306 16.606H53.2206V1.6H106.193V16.606H89.3826V59H70.0306V16.606Z" fill="#685858"/>
<path d="M150.333 48.996H128.521L124.667 59H104.987L130.079 1.6H149.103L174.195 59H154.187L150.333 48.996ZM145.003 35.056L139.427 20.624L133.851 35.056H145.003ZM201.883 44.568H196.635V59H177.283V1.6H204.917C210.22 1.6 214.839 2.47466 218.775 4.224C222.711 5.97333 225.745 8.488 227.877 11.768C230.009 15.048 231.075 18.8747 231.075 23.248C231.075 27.348 230.146 30.9287 228.287 33.99C226.429 37.0513 223.75 39.484 220.251 41.288L232.305 59H211.641L201.883 44.568ZM211.559 23.248C211.559 21.116 210.903 19.476 209.591 18.328C208.279 17.1253 206.311 16.524 203.687 16.524H196.635V29.972H203.687C206.311 29.972 208.279 29.398 209.591 28.25C210.903 27.0473 211.559 25.38 211.559 23.248Z" fill="#685858"/>
</svg>
