<svg width="182" height="38" viewBox="0 0 182 38" fill="none" xmlns="http://www.w3.org/2000/svg">
<path d="M43.225 25.225H48.975V28H39.725V10.55H43.225V25.225ZM53.6496 10.55V21.35C53.6496 22.5333 53.9579 23.4417 54.5746 24.075C55.1913 24.6917 56.0579 25 57.1746 25C58.3079 25 59.1829 24.6917 59.7996 24.075C60.4163 23.4417 60.7246 22.5333 60.7246 21.35V10.55H64.2496V21.325C64.2496 22.8083 63.9246 24.0667 63.2746 25.1C62.6413 26.1167 61.7829 26.8833 60.6996 27.4C59.6329 27.9167 58.4413 28.175 57.1246 28.175C55.8246 28.175 54.6413 27.9167 53.5746 27.4C52.5246 26.8833 51.6913 26.1167 51.0746 25.1C50.4579 24.0667 50.1496 22.8083 50.1496 21.325V10.55H53.6496ZM85.6563 10.55V28H82.1563V16.65L77.4813 28H74.8313L70.1313 16.65V28H66.6313V10.55H70.6063L76.1563 23.525L81.7063 10.55H85.6563ZM91.6166 10.55V28H88.1166V10.55H91.6166ZM109 28H105.5L97.5746 16.025V28H94.0746V10.525H97.5746L105.5 22.525V10.525H109V28ZM119.558 28.175C117.925 28.175 116.425 27.7917 115.058 27.025C113.692 26.2583 112.608 25.2 111.808 23.85C111.008 22.4833 110.608 20.9417 110.608 19.225C110.608 17.525 111.008 16 111.808 14.65C112.608 13.2833 113.692 12.2167 115.058 11.45C116.425 10.6833 117.925 10.3 119.558 10.3C121.208 10.3 122.708 10.6833 124.058 11.45C125.425 12.2167 126.5 13.2833 127.283 14.65C128.083 16 128.483 17.525 128.483 19.225C128.483 20.9417 128.083 22.4833 127.283 23.85C126.5 25.2 125.425 26.2583 124.058 27.025C122.692 27.7917 121.192 28.175 119.558 28.175ZM119.558 25.05C120.608 25.05 121.533 24.8167 122.333 24.35C123.133 23.8667 123.758 23.1833 124.208 22.3C124.658 21.4167 124.883 20.3917 124.883 19.225C124.883 18.0583 124.658 17.0417 124.208 16.175C123.758 15.2917 123.133 14.6167 122.333 14.15C121.533 13.6833 120.608 13.45 119.558 13.45C118.508 13.45 117.575 13.6833 116.758 14.15C115.958 14.6167 115.333 15.2917 114.883 16.175C114.433 17.0417 114.208 18.0583 114.208 19.225C114.208 20.3917 114.433 21.4167 114.883 22.3C115.333 23.1833 115.958 23.8667 116.758 24.35C117.575 24.8167 118.508 25.05 119.558 25.05ZM129.237 19.25C129.237 17.5333 129.621 16 130.387 14.65C131.171 13.2833 132.229 12.225 133.562 11.475C134.912 10.7083 136.421 10.325 138.087 10.325C140.037 10.325 141.746 10.825 143.212 11.825C144.679 12.825 145.704 14.2083 146.287 15.975H142.262C141.862 15.1417 141.296 14.5167 140.562 14.1C139.846 13.6833 139.012 13.475 138.062 13.475C137.046 13.475 136.137 13.7167 135.337 14.2C134.554 14.6667 133.937 15.3333 133.487 16.2C133.054 17.0667 132.837 18.0833 132.837 19.25C132.837 20.4 133.054 21.4167 133.487 22.3C133.937 23.1667 134.554 23.8417 135.337 24.325C136.137 24.7917 137.046 25.025 138.062 25.025C139.012 25.025 139.846 24.8167 140.562 24.4C141.296 23.9667 141.862 23.3333 142.262 22.5H146.287C145.704 24.2833 144.679 25.675 143.212 26.675C141.762 27.6583 140.054 28.15 138.087 28.15C136.421 28.15 134.912 27.775 133.562 27.025C132.229 26.2583 131.171 25.2 130.387 23.85C129.621 22.5 129.237 20.9667 129.237 19.25ZM151.777 10.55V28H148.277V10.55H151.777ZM166.11 10.55V13.375H161.46V28H157.96V13.375H153.31V10.55H166.11ZM181.538 10.55L175.638 21.925V28H172.138V21.925L166.213 10.55H170.163L173.913 18.525L177.638 10.55H181.538Z" fill="#FF9600"/>
<path d="M30.656 13.6367L16.7962 1.5599C16.4262 1.22352 15.8543 1.22352 15.4842 1.5599L1.35532 13.6367C0.917984 14.0068 0.884372 14.6459 1.25442 15.0496C1.45628 15.2851 1.72537 15.4197 2.02813 15.4197C2.2636 15.4197 2.49907 15.3524 2.66732 15.1842L4.38298 13.7377V29.6832C4.38298 30.2551 4.82032 30.6924 5.39216 30.6924H26.6528C27.2248 30.6924 27.662 30.255 27.662 29.6832V13.704L29.344 15.1842C29.7477 15.5543 30.3869 15.5206 30.7569 15.0833C31.127 14.646 31.0597 14.0068 30.656 13.6367ZM25.61 28.674H6.36773V11.9884L16.1234 3.6456L25.61 11.9548V28.674Z" fill="#FF9600" stroke="#FF9600" stroke-width="0.3"/>
<path d="M15.9999 12.3704C13.2224 12.3704 10.9629 14.6299 10.9629 17.4074C10.9629 19.5147 12.2639 21.3813 14.2221 22.1185V24.8148C14.2221 24.9787 14.3546 25.1111 14.5184 25.1111H14.8147V25.7037C14.8147 25.8675 14.9472 26 15.111 26H16.8888C17.0527 26 17.1851 25.8675 17.1851 25.7037V25.1111H17.4814C17.6453 25.1111 17.7777 24.9787 17.7777 24.8148V22.1185C19.7359 21.3813 21.037 19.5147 21.037 17.4074C21.037 14.6299 18.7774 12.3704 15.9999 12.3704ZM16.8888 24.5185C16.725 24.5185 16.5925 24.651 16.5925 24.8148V25.4074H15.4073V24.8148C15.4073 24.651 15.2749 24.5185 15.111 24.5185H14.8147V23.037H17.1851V24.5185H16.8888ZM17.389 21.6273C17.2672 21.6673 17.1851 21.781 17.1851 21.9087V22.4444H14.8147V21.9087C14.8147 21.7807 14.7327 21.6673 14.6109 21.6273C12.7836 21.0264 11.5555 19.3304 11.5555 17.4074C11.5555 14.9567 13.5493 12.963 15.9999 12.963C18.4506 12.963 20.4444 14.9567 20.4444 17.4074C20.4444 19.3304 19.2162 21.0264 17.389 21.6273Z" fill="#FF9600" stroke="#FF9600" stroke-width="0.5"/>
<path d="M15.9999 11.7778C16.1638 11.7778 16.2962 11.6453 16.2962 11.4815V10.2963C16.2962 10.1324 16.1638 10 15.9999 10C15.8361 10 15.7036 10.1324 15.7036 10.2963V11.4815C15.7036 11.6453 15.8361 11.7778 15.9999 11.7778Z" fill="#FF9600" stroke="#FF9600" stroke-width="0.5"/>
<path d="M23.1111 17.1111H21.9259C21.7621 17.1111 21.6296 17.2435 21.6296 17.4074C21.6296 17.5712 21.7621 17.7037 21.9259 17.7037H23.1111C23.275 17.7037 23.4074 17.5712 23.4074 17.4074C23.4074 17.2435 23.275 17.1111 23.1111 17.1111Z" fill="#FF9600" stroke="#FF9600" stroke-width="0.5"/>
<path d="M10.074 17.1111H8.88883C8.72497 17.1111 8.59253 17.2435 8.59253 17.4074C8.59253 17.5712 8.72497 17.7037 8.88883 17.7037H10.074C10.2379 17.7037 10.3703 17.5712 10.3703 17.4074C10.3703 17.2435 10.2379 17.1111 10.074 17.1111Z" fill="#FF9600" stroke="#FF9600" stroke-width="0.5"/>
<path d="M20.8189 12.1695L19.9809 13.0075C19.8651 13.1233 19.8651 13.3106 19.9809 13.4264C20.0387 13.4842 20.1146 13.5132 20.1904 13.5132C20.2663 13.5132 20.3421 13.4842 20.3999 13.4264L21.2378 12.5885C21.3537 12.4727 21.3537 12.2854 21.2378 12.1695C21.122 12.0537 20.9344 12.054 20.8189 12.1695Z" fill="#FF9600" stroke="#FF9600" stroke-width="0.5"/>
<path d="M11.5999 21.3884L10.7619 22.2263C10.6461 22.3422 10.6461 22.5294 10.7619 22.6453C10.8197 22.7031 10.8956 22.7321 10.9714 22.7321C11.0473 22.7321 11.1231 22.7031 11.1809 22.6453L12.0188 21.8074C12.1347 21.6915 12.1347 21.5043 12.0188 21.3884C11.903 21.2726 11.7157 21.2726 11.5999 21.3884Z" fill="#FF9600" stroke="#FF9600" stroke-width="0.5"/>
<path d="M20.3999 21.3884C20.284 21.2726 20.0968 21.2726 19.9809 21.3884C19.8651 21.5043 19.8651 21.6915 19.9809 21.8074L20.8189 22.6453C20.8766 22.7031 20.9525 22.7321 21.0283 22.7321C21.1042 22.7321 21.18 22.7031 21.2378 22.6453C21.3537 22.5294 21.3537 22.3422 21.2378 22.2263L20.3999 21.3884Z" fill="#FF9600" stroke="#FF9600" stroke-width="0.5"/>
<path d="M11.5999 13.4263C11.6576 13.4841 11.7335 13.5131 11.8093 13.5131C11.8852 13.5131 11.961 13.4841 12.0188 13.4263C12.1347 13.3104 12.1347 13.1232 12.0188 13.0073L11.1809 12.1694C11.065 12.0536 10.8778 12.0536 10.7619 12.1694C10.6461 12.2853 10.6461 12.4725 10.7619 12.5884L11.5999 13.4263Z" fill="#FF9600" stroke="#FF9600" stroke-width="0.5"/>
<path d="M15.9999 13.8518C14.0393 13.8518 12.4443 15.4468 12.4443 17.4074C12.4443 17.5712 12.5768 17.7037 12.7406 17.7037C12.9045 17.7037 13.0369 17.5712 13.0369 17.4074C13.0369 15.7736 14.3661 14.4444 15.9999 14.4444C16.1637 14.4444 16.2962 14.312 16.2962 14.1481C16.2962 13.9843 16.1637 13.8518 15.9999 13.8518Z" fill="#FF9600" stroke="#FF9600" stroke-width="0.5"/>
</svg>
