<svg width="346" height="61" viewBox="0 0 346 61" fill="none" xmlns="http://www.w3.org/2000/svg">
<path d="M51.924 59L51.76 32.842L39.296 53.834H30.768L18.304 33.744V59H0.674V1.6H16.582L35.278 32.186L53.482 1.6H69.39L69.554 59H51.924ZM113.022 38.172V59H93.6703V37.926L72.0223 1.6H92.4403L104.166 21.444L115.974 1.6H134.67L113.022 38.172Z" fill="black"/>
<path d="M183.113 60.312C178.357 60.312 173.71 59.7927 169.173 58.754C164.69 57.6607 161 56.212 158.103 54.408L164.335 40.304C167.068 41.8893 170.13 43.174 173.519 44.158C176.908 45.0873 180.161 45.552 183.277 45.552C185.956 45.552 187.869 45.306 189.017 44.814C190.165 44.2673 190.739 43.4747 190.739 42.436C190.739 41.2333 189.974 40.3313 188.443 39.73C186.967 39.1287 184.507 38.4727 181.063 37.762C176.635 36.8327 172.945 35.8487 169.993 34.81C167.041 33.7167 164.472 31.9673 162.285 29.562C160.098 27.102 159.005 23.7947 159.005 19.64C159.005 16.032 160.016 12.752 162.039 9.8C164.062 6.848 167.068 4.52466 171.059 2.82999C175.104 1.13533 179.997 0.287998 185.737 0.287998C189.673 0.287998 193.527 0.725331 197.299 1.6C201.126 2.42 204.488 3.65 207.385 5.29L201.563 19.312C195.932 16.4693 190.602 15.048 185.573 15.048C180.598 15.048 178.111 16.2507 178.111 18.656C178.111 19.804 178.849 20.6787 180.325 21.28C181.801 21.8267 184.234 22.428 187.623 23.084C191.996 23.904 195.686 24.8607 198.693 25.954C201.7 26.9927 204.296 28.7147 206.483 31.12C208.724 33.5253 209.845 36.8053 209.845 40.96C209.845 44.568 208.834 47.848 206.811 50.8C204.788 53.6973 201.754 56.0207 197.709 57.77C193.718 59.4647 188.853 60.312 183.113 60.312ZM215.604 1.6H234.956V59H215.604V1.6ZM256.736 16.606H239.926V1.6H292.898V16.606H276.088V59H256.736V16.606ZM345.648 44.404V59H297.924V1.6H344.582V16.196H316.948V22.92H341.22V36.86H316.948V44.404H345.648Z" fill="#545375"/>
</svg>
